<?xml version="1.0" encoding="UTF-8"?>
<svg version="1.1" xmlns="http://www.w3.org/2000/svg" width="200" height="200">
<path d="M0 0 C66 0 132 0 200 0 C200 23.1 200 46.2 200 70 C134 70 68 70 0 70 C0 46.9 0 23.8 0 0 Z " fill="#FCFCFC" transform="translate(0,64)"/>
<path d="M0 0 C0 5.28 0 10.56 0 16 C-3.96 16.33 -7.92 16.66 -12 17 C-14.56329124 13.7157831 -15.92531942 11.54143424 -16.5 7.375 C-15.11252272 -1.99047164 -7.57519858 -0.32935646 0 0 Z " fill="#1F1F1F" transform="translate(108,91)"/>
<path d="M0 0 C4.18728708 0.66115059 5.85899843 1.2855284 8.5625 4.5625 C9.37656404 8.34595953 9.0400969 11.46683652 7.5 15 C4.57967965 17.35509706 2.26787805 17.49861417 -1.4375 17.5625 C-4.38505732 16.21687601 -5.98027272 15.47695456 -7.4375 12.5625 C-7.81559179 8.55472707 -7.78157297 6.20935719 -5.875 2.625 C-3.4375 0.5625 -3.4375 0.5625 0 0 Z " fill="#171717" transform="translate(37.4375,90.4375)"/>
<path d="M0 0 C0.99 0 1.98 0 3 0 C3.33 2.97 3.66 5.94 4 9 C4.61488281 8.3503125 5.22976562 7.700625 5.86328125 7.03125 C6.67152344 6.1959375 7.47976562 5.360625 8.3125 4.5 C9.11300781 3.6646875 9.91351563 2.829375 10.73828125 1.96875 C13 0 13 0 16 0 C15.49477778 4.37859255 12.82172778 6.81651224 10 10 C10.66708984 10.79664062 10.66708984 10.79664062 11.34765625 11.609375 C11.91355469 12.31578125 12.47945312 13.0221875 13.0625 13.75 C13.63097656 14.44609375 14.19945312 15.1421875 14.78515625 15.859375 C16 18 16 18 15.68359375 20.265625 C15.45800781 20.83796875 15.23242188 21.4103125 15 22 C11.11264717 20.70421572 10.43833758 18.87410487 8.37890625 15.49609375 C7.92386719 15.00238281 7.46882812 14.50867188 7 14 C5.68 14 4.36 14 3 14 C3 16.31 3 18.62 3 21 C1.68 21 0.36 21 -1 21 C-1.02888146 17.68751813 -1.04675799 14.37506833 -1.0625 11.0625 C-1.07087891 10.11697266 -1.07925781 9.17144531 -1.08789062 8.19726562 C-1.09111328 7.29814453 -1.09433594 6.39902344 -1.09765625 5.47265625 C-1.10289307 4.64000244 -1.10812988 3.80734863 -1.11352539 2.94946289 C-1 1 -1 1 0 0 Z " fill="#4D7E8D" transform="translate(141,86)"/>
<path d="M0 0 C2.875 1.6875 2.875 1.6875 5 4 C5.375 6.6875 5.375 6.6875 5 9 C4 10 4 10 1.71484375 10.09765625 C0.34005859 10.08025391 0.34005859 10.08025391 -1.0625 10.0625 C-1.98160156 10.05347656 -2.90070313 10.04445313 -3.84765625 10.03515625 C-4.55792969 10.02355469 -5.26820313 10.01195313 -6 10 C-5.67 10.66 -5.34 11.32 -5 12 C-2.03 12 0.94 12 4 12 C3.67 13.32 3.34 14.64 3 16 C-0.12860495 17.56430248 -2.55602925 17.35627284 -6 17 C-8.57687323 14.88564247 -9.74473348 13.32896485 -10.37890625 10.02734375 C-10.57772052 6.59619431 -10.25145349 4.38685153 -8.375 1.5 C-5.25991849 -0.4674199 -3.62829011 -0.5923739 0 0 Z " fill="#3E7484" transform="translate(169,91)"/>
<path d="M0 0 C0.33 1.32 0.66 2.64 1 4 C-2.63 4.66 -6.26 5.32 -10 6 C-10.04125 7.44375 -10.0825 8.8875 -10.125 10.375 C-10.14820313 11.18710938 -10.17140625 11.99921875 -10.1953125 12.8359375 C-10.21370051 15.21342243 -10.21370051 15.21342243 -8 17 C-5.79749008 17.46006346 -5.79749008 17.46006346 -3.375 17.625 C-2.55773438 17.69976562 -1.74046875 17.77453125 -0.8984375 17.8515625 C-0.27195312 17.90054688 0.35453125 17.94953125 1 18 C1 18.99 1 19.98 1 21 C-7.83700441 22.49779736 -7.83700441 22.49779736 -12 20 C-15.61093122 16.08156856 -15.57732831 12.78717593 -15.3984375 7.640625 C-15 5 -15 5 -13.125 1.8125 C-8.73271871 -0.73502315 -4.95979323 -0.43337999 0 0 Z " fill="#1C1C1C" transform="translate(26,86)"/>
<path d="M0 0 C0.97710937 -0.03738281 1.95421875 -0.07476562 2.9609375 -0.11328125 C5.625 0.3125 5.625 0.3125 7.46484375 1.94140625 C8.95148599 4.97976261 8.92230507 7.19514459 8.8125 10.5625 C8.78542969 11.64015625 8.75835937 12.7178125 8.73046875 13.828125 C8.69566406 14.64796875 8.66085938 15.4678125 8.625 16.3125 C7.305 16.3125 5.985 16.3125 4.625 16.3125 C4.625 12.3525 4.625 8.3925 4.625 4.3125 C2.975 4.3125 1.325 4.3125 -0.375 4.3125 C-2.18615956 6.12365956 -1.75699448 8.92528227 -1.9375 11.375 C-2.02128906 12.47972656 -2.10507812 13.58445312 -2.19140625 14.72265625 C-2.25199219 15.57730469 -2.31257813 16.43195313 -2.375 17.3125 C-3.695 16.9825 -5.015 16.6525 -6.375 16.3125 C-6.40185095 13.83326199 -6.42176547 11.3543116 -6.4375 8.875 C-6.45006836 7.81442383 -6.45006836 7.81442383 -6.46289062 6.73242188 C-6.47153588 4.92556441 -6.42720011 3.11862397 -6.375 1.3125 C-4.64021442 -0.42228558 -2.35962677 0.05883584 0 0 Z " fill="#282828" transform="translate(55.375,90.6875)"/>
<path d="M0 0 C0.97710937 -0.03738281 1.95421875 -0.07476562 2.9609375 -0.11328125 C5.625 0.3125 5.625 0.3125 7.46484375 1.94140625 C8.95148599 4.97976261 8.92230507 7.19514459 8.8125 10.5625 C8.78542969 11.64015625 8.75835937 12.7178125 8.73046875 13.828125 C8.69566406 14.64796875 8.66085938 15.4678125 8.625 16.3125 C7.305 16.6425 5.985 16.9725 4.625 17.3125 C4.625 13.0225 4.625 8.7325 4.625 4.3125 C2.315 4.3125 0.005 4.3125 -2.375 4.3125 C-2.375 8.2725 -2.375 12.2325 -2.375 16.3125 C-3.695 16.3125 -5.015 16.3125 -6.375 16.3125 C-6.40185095 13.83326199 -6.42176547 11.3543116 -6.4375 8.875 C-6.45006836 7.81442383 -6.45006836 7.81442383 -6.46289062 6.73242188 C-6.47153588 4.92556441 -6.42720011 3.11862397 -6.375 1.3125 C-4.64021442 -0.42228558 -2.35962677 0.05883584 0 0 Z " fill="#548492" transform="translate(183.375,90.6875)"/>
<path d="M0 0 C0.66 0.33 1.32 0.66 2 1 C2 1.99 2 2.98 2 4 C-2.455 4.495 -2.455 4.495 -7 5 C-7.04254356 6.99954746 -7.04080783 9.00041636 -7 11 C-5.50256881 12.49743119 -4.01175761 12.33202693 -1.9375 12.5625 C-0.638125 12.706875 0.66125 12.85125 2 13 C1.67 13.99 1.34 14.98 1 16 C-3.6290403 16.90765496 -6.82993597 17.45297884 -11 15 C-12.23838748 11.28483757 -12.53600366 7.86077996 -12 4 C-8.98792013 -1.02013311 -5.32118531 -0.42912785 0 0 Z " fill="#2C2C2C" transform="translate(123,91)"/>
<path d="M0 0 C1.32 0 2.64 0 4 0 C4 0.99 4 1.98 4 3 C4.99 3 5.98 3 7 3 C7 4.32 7 5.64 7 7 C6.01 7 5.02 7 4 7 C4 9.97 4 12.94 4 16 C4.99 16 5.98 16 7 16 C7 16.99 7 17.98 7 19 C5.00045254 19.04254356 2.99958364 19.04080783 1 19 C0 18 0 18 -0.09765625 15.49609375 C-0.08605469 14.48675781 -0.07445312 13.47742188 -0.0625 12.4375 C-0.05347656 11.42558594 -0.04445312 10.41367188 -0.03515625 9.37109375 C-0.02355469 8.58863281 -0.01195312 7.80617188 0 7 C-0.99 6.67 -1.98 6.34 -3 6 C-2.67 5.01 -2.34 4.02 -2 3 C-1.34 3 -0.68 3 0 3 C0 2.01 0 1.02 0 0 Z " fill="#1E1E1E" transform="translate(129,88)"/>
<path d="M0 0 C1.32 0 2.64 0 4 0 C4 0.99 4 1.98 4 3 C4.99 3 5.98 3 7 3 C7 4.32 7 5.64 7 7 C6.01 7 5.02 7 4 7 C4 9.97 4 12.94 4 16 C4.99 16 5.98 16 7 16 C7 16.99 7 17.98 7 19 C5.00045254 19.04254356 2.99958364 19.04080783 1 19 C0 18 0 18 -0.09765625 15.49609375 C-0.08605469 14.48675781 -0.07445313 13.47742188 -0.0625 12.4375 C-0.05347656 11.42558594 -0.04445313 10.41367188 -0.03515625 9.37109375 C-0.02355469 8.58863281 -0.01195313 7.80617188 0 7 C-0.99 6.67 -1.98 6.34 -3 6 C-2.67 5.01 -2.34 4.02 -2 3 C-1.34 3 -0.68 3 0 3 C0 2.01 0 1.02 0 0 Z " fill="#1D1D1D" transform="translate(69,88)"/>
<path d="M0 0 C0.33 0 0.66 0 1 0 C1.08687496 3.12482562 1.14034568 6.24934246 1.1875 9.375 C1.22520508 10.70917969 1.22520508 10.70917969 1.26367188 12.0703125 C1.27817383 13.34648438 1.27817383 13.34648438 1.29296875 14.6484375 C1.31653442 15.82672119 1.31653442 15.82672119 1.34057617 17.02880859 C1.22818604 17.67930176 1.1157959 18.32979492 1 19 C-2.4352048 21.29013653 -3.985331 21.17842973 -8 21 C-8 20.67 -8 20.34 -8 20 C-6.35 20 -4.7 20 -3 20 C-3 19.01 -3 18.02 -3 17 C-3.99 17 -4.98 17 -6 17 C-6 14.03 -6 11.06 -6 8 C-5.01 8 -4.02 8 -3 8 C-3 7.01 -3 6.02 -3 5 C-2.34 5 -1.68 5 -1 5 C-0.67 3.35 -0.34 1.7 0 0 Z " fill="#ECEDED" transform="translate(139,87)"/>
<path d="M0 0 C3.3 0 6.6 0 10 0 C10.33 0.99 10.66 1.98 11 3 C9.02 3.33 7.04 3.66 5 4 C4.67 7.96 4.34 11.92 4 16 C2.68 16.33 1.36 16.66 0 17 C0 11.39 0 5.78 0 0 Z " fill="#2B2B2B" transform="translate(80,91)"/>
<path d="M0 0 C4.29 0 8.58 0 13 0 C13 0.33 13 0.66 13 1 C9.7 1 6.4 1 3 1 C3.33 1.66 3.66 2.32 4 3 C6.97 3 9.94 3 13 3 C12.67 4.32 12.34 5.64 12 7 C8.87139505 8.56430248 6.44397075 8.35627284 3 8 C0.5 5.6875 0.5 5.6875 -1 3 C-0.67 2.01 -0.34 1.02 0 0 Z " fill="#568593" transform="translate(160,100)"/>
<path d="M0 0 C1.875 0.6875 1.875 0.6875 2.875 1.6875 C3.0625 4.625 3.0625 4.625 2.875 7.6875 C0.875 9.6875 0.875 9.6875 -1.6875 9.875 C-4.125 9.6875 -4.125 9.6875 -5.125 8.6875 C-5.375 5.25 -5.375 5.25 -5.125 1.6875 C-2.125 -0.3125 -2.125 -0.3125 0 0 Z " fill="#F1F1F1" transform="translate(101.125,94.3125)"/>
<path d="M0 0 C2.6875 0.875 2.6875 0.875 5 2 C5.125 4.875 5.125 4.875 5 8 C3 10 3 10 0.4375 10.1875 C-2 10 -2 10 -3 9 C-3.25 5.5625 -3.25 5.5625 -3 2 C-2.01 1.34 -1.02 0.68 0 0 Z " fill="#F4F4F4" transform="translate(37,94)"/>
<path d="M0 0 C0.66 0 1.32 0 2 0 C3.50156874 3.00313748 3.09281204 5.79067522 3.0625 9.125 C3.05347656 10.40632813 3.04445312 11.68765625 3.03515625 13.0078125 C3.02355469 13.99523437 3.01195312 14.98265625 3 16 C1.68 16 0.36 16 -1 16 C-1.02685095 13.52076199 -1.04676547 11.0418116 -1.0625 8.5625 C-1.07506836 7.50192383 -1.07506836 7.50192383 -1.08789062 6.41992188 C-1.09653588 4.61306441 -1.05220011 2.80612397 -1 1 C-0.67 0.67 -0.34 0.34 0 0 Z " fill="#4B7D8C" transform="translate(178,91)"/>
<path d="M0 0 C0.33 0 0.66 0 1 0 C1.35883905 7.176781 1.35883905 7.176781 -0.0625 10.4375 C-2.85814696 12.692054 -5.48866866 12.73499386 -9 13 C-9 12.01 -9 11.02 -9 10 C-8.38125 9.79375 -7.7625 9.5875 -7.125 9.375 C-4.15346355 7.45224112 -3.86975341 5.33405473 -3 2 C-2.01 3.485 -2.01 3.485 -1 5 C-0.67 3.35 -0.34 1.7 0 0 Z " fill="#303030" transform="translate(45,95)"/>
<path d="M0 0 C0.90105469 0.02707031 1.80210938 0.05414063 2.73046875 0.08203125 C3.76107422 0.13423828 3.76107422 0.13423828 4.8125 0.1875 C5.1425 1.5075 5.4725 2.8275 5.8125 4.1875 C2.5125 4.5175 -0.7875 4.8475 -4.1875 5.1875 C-3.5275 3.8675 -2.8675 2.5475 -2.1875 1.1875 C-3.5075 2.1775 -4.8275 3.1675 -6.1875 4.1875 C-6.8475 3.8575 -7.5075 3.5275 -8.1875 3.1875 C-5.67753317 0.01043235 -3.96125134 -0.15433447 0 0 Z " fill="#333333" transform="translate(21.1875,85.8125)"/>
<path d="M0 0 C0.66 0.33 1.32 0.66 2 1 C2 1.99 2 2.98 2 4 C-0.64 4 -3.28 4 -6 4 C-5.67 3.34 -5.34 2.68 -5 2 C-7.6905528 3.22007944 -7.6905528 3.22007944 -10 5 C-10.36760731 7.32817964 -10.70241581 9.6618385 -11 12 C-11.33 12 -11.66 12 -12 12 C-12.48 4.8 -12.48 4.8 -10.5 1.5 C-6.81370046 -0.71177972 -4.26823808 -0.34421275 0 0 Z " fill="#3D3D3D" transform="translate(123,91)"/>
<path d="M0 0 C0.33 0 0.66 0 1 0 C1.33 1.98 1.66 3.96 2 6 C3.65 6.33 5.3 6.66 7 7 C7 8.33333333 7 9.66666667 7 11 C1.61292897 11.47885076 1.61292897 11.47885076 -1 9.4375 C-2.47195602 5.84960721 -1.29219486 3.5365333 0 0 Z " fill="#2E2E2E" transform="translate(95,97)"/>
<path d="M0 0 C6.64615385 1.47692308 6.64615385 1.47692308 8.4375 4.125 C8.7159375 5.053125 8.7159375 5.053125 9 6 C6.36 6 3.72 6 1 6 C0.34 4.35 -0.32 2.7 -1 1 C-0.67 0.67 -0.34 0.34 0 0 Z " fill="#9AB6BF" transform="translate(161,92)"/>
<path d="M0 0 C3.375 -0.125 3.375 -0.125 7 0 C9 2 9 2 9.125 5.125 C9.08375 6.07375 9.0425 7.0225 9 8 C8.01 8.495 8.01 8.495 7 9 C6.71125 8.195625 6.4225 7.39125 6.125 6.5625 C5.26737432 3.8673532 5.26737432 3.8673532 3 3 C3 2.34 3 1.68 3 1 C2.01 0.67 1.02 0.34 0 0 Z " fill="#0F0F0F" transform="translate(36,92)"/>
<path d="M0 0 C-0.78375 0.515625 -1.5675 1.03125 -2.375 1.5625 C-5.55594248 4.5162323 -6.11493693 6.81606548 -7 11 C-7.66 11 -8.32 11 -9 11 C-9.48461538 4.7 -9.48461538 4.7 -7.3125 1.5625 C-4.61589191 -0.25953249 -3.18873549 -0.35430394 0 0 Z " fill="#040404" transform="translate(121,92)"/>
<path d="M0 0 C0 0.99 0 1.98 0 3 C-2.64 3 -5.28 3 -8 3 C-6.23110084 -0.53779831 -3.70375662 0 0 0 Z " fill="#353535" transform="translate(125,92)"/>
<path d="M0 0 C0.33 0.99 0.66 1.98 1 3 C-1.875 3.125 -1.875 3.125 -5 3 C-5.66 2.34 -6.32 1.68 -7 1 C-4.53721199 -0.231394 -2.7204945 -0.07159196 0 0 Z " fill="#2C2C2C" transform="translate(90,91)"/>
<path d="M0 0 C2.31 0 4.62 0 7 0 C4.63707344 2.52588702 3.33537489 3.88820837 0 5 C0 3.35 0 1.7 0 0 Z " fill="#252525" transform="translate(34,91)"/>
</svg>
