<?xml version="1.0" encoding="UTF-8"?>
<svg version="1.1" xmlns="http://www.w3.org/2000/svg" width="200" height="200">
<path d="M0 0 C66 0 132 0 200 0 C200 66 200 132 200 200 C134 200 68 200 0 200 C0 134 0 68 0 0 Z " fill="#FDFDFD" transform="translate(0,0)"/>
<path d="M0 0 C0.7645752 0.23589844 1.52915039 0.47179688 2.31689453 0.71484375 C5.69634331 1.76330095 9.07236574 2.81780673 12.43139648 3.93017578 C16.61303092 5.31011074 20.61373481 6.42359977 25 7 C25.33 6.34 25.66 5.68 26 5 C27.98 5.99 27.98 5.99 30 7 C27.74765807 13.14952745 24.11232332 18.34583887 20.5625 23.8125 C19.88123047 24.88693359 19.19996094 25.96136719 18.49804688 27.06835938 C17.51094727 28.59106445 17.51094727 28.59106445 16.50390625 30.14453125 C15.60393921 31.54215698 15.60393921 31.54215698 14.68579102 32.96801758 C14.12947998 33.63857178 13.57316895 34.30912598 13 35 C12.01 35 11.02 35 10 35 C9.835 34.113125 9.67 33.22625 9.5 32.3125 C6.79418563 26.33715994 0.98732808 24.31928375 -4.8125 21.8125 C-18.82395827 16.59516805 -38.06900965 14.92158868 -52.3125 20 C-55.25715942 21.35461361 -55.25715942 21.35461361 -58 23 C-58.98097656 23.56976563 -59.96195313 24.13953125 -60.97265625 24.7265625 C-69.99686018 30.62933923 -75.61295413 38.45258801 -78 49 C-79.2963556 61.38433328 -78.15237149 71.50186556 -70.75 81.75 C-63.57221015 90.36941783 -53.99835348 95.66083553 -43 98 C-23.89582534 99.46287776 -6.51401675 97.17620492 10 87 C13.33746767 84.26686177 13.33746767 84.26686177 14.25 80.25 C14.1675 79.5075 14.085 78.765 14 78 C15.32 77.67 16.64 77.34 18 77 C19.77222551 79.72826496 21.54252913 82.4577719 23.3125 85.1875 C23.81201172 85.95642578 24.31152344 86.72535156 24.82617188 87.51757812 C26.22388664 89.6743168 27.61288287 91.83643625 29 94 C29.61230469 94.94488281 30.22460938 95.88976562 30.85546875 96.86328125 C32 99 32 99 32 102 C30.85273438 102.25007813 29.70546875 102.50015625 28.5234375 102.7578125 C23.91655987 103.911052 19.86731913 105.77540826 15.625 107.875 C14.11665741 108.597967 12.60754739 109.31933519 11.09765625 110.0390625 C10.38367676 110.38098633 9.66969727 110.72291016 8.93408203 111.07519531 C-13.81839289 121.95456605 -39.70232611 123.36800208 -63.5625 115.3125 C-78.82194478 109.81963724 -91.58705366 100.27978738 -98.859375 85.484375 C-99.23578125 84.66453125 -99.6121875 83.8446875 -100 83 C-100.86625 81.2675 -100.86625 81.2675 -101.75 79.5 C-106.79884616 65.36323074 -107.0605067 48.59540638 -100.76318359 34.90161133 C-93.40901971 19.67376182 -81.89494366 8.26094438 -66 2 C-46.08299358 -4.92867558 -20.29673945 -6.26641672 0 0 Z " fill="#040404" transform="translate(136,42)"/>
<path d="M0 0 C0.66 0.33 1.32 0.66 2 1 C-1.63 4.63 -5.26 8.26 -9 12 C-9 8.00102358 -7.64683965 6.93298448 -5 4 C-3.36643049 2.62631655 -1.7074998 1.28062485 0 0 Z " fill="#DADADA" transform="translate(73,67)"/>
</svg>
